<svg xmlns="http://www.w3.org/2000/svg" viewBox="0 0 278.96 79.47"><defs><style>.emartColo1{fill:#494b57;}.emartColor2{fill:#feb415;}</style></defs><g id="레이어_2" data-name="레이어 2"><g id="svg4822"><g id="layer1"><g id="g4849"><path id="path4847" class="emartColo1" d="M172.66,78.7c-7.52-1.61-13.66-5.9-16.36-11.41-1.17-2.39-1.35-3.36-1.35-7.18,0-5.49,1.13-8.28,4.76-11.68,3.45-3.24,7.87-5.21,19-8.44,13.22-3.84,15.31-4.94,15.4-8,.06-2.14-1.31-3.93-4-5.15-3.3-1.53-10.76-1.53-13.59,0s-4.23,3.22-4.9,5.85l-.58,2.28-6.84-.08a40.9,40.9,0,0,1-7.15-.42c-.62-.66.59-6.76,1.84-9.32,2.46-5.05,5.57-7.62,11.8-9.75,5.12-1.75,16.17-2.24,21.89-1,7.59,1.69,13,5.54,15.41,10.89,1.78,4,2.34,10.39,2,23.23-.18,8.15-.47,11.9-1.06,14-3.07,11.11-12.51,17-27,16.93a58.68,58.68,0,0,1-9.34-.77ZM185.45,67A13.23,13.23,0,0,0,193,60.6c.84-1.75,1.11-3.4,1.3-7.86a40.55,40.55,0,0,0,0-5.65c-1.28,0-17.83,5.27-19.35,6.16a7.56,7.56,0,0,0-4.1,7c0,2.26.19,2.71,1.87,4.39a11.16,11.16,0,0,0,3.56,2.4,17.44,17.44,0,0,0,9.12-.08Zm75.18,11.77a14.39,14.39,0,0,1-7.46-4.87c-2.7-3.54-2.7-3.52-2.7-39.7V.84l5.37.16c4.49.14,5.59.34,6.72,1.18,2.05,1.54,3,4,3.48,8.57l.39,4.17,6.26.14,6.27.14v3.05c0,6-2.84,8.68-9.21,8.7h-3.56V64.63l1.17,1.27a6.36,6.36,0,0,0,3,1.61,22.13,22.13,0,0,0,7.84-.58c.71-.27.78.32.66,5.5l-.14,5.81-2.95.62c-3.82.79-12.11.74-15.13-.09Zm-119.37-1A8.87,8.87,0,0,1,136,72.88c-.84-1.81-.91-3.57-.92-21.86,0-21.88,0-22-3.1-24.26-2.1-1.54-7.5-1.71-10.35-.33-3.85,1.87-3.75,1.12-3.75,28V78H102.14V54.19c0-26.79.12-25.89-3.58-27.67-4.26-2.06-10-1.1-12.35,2.07-1,1.35-1,2-1.13,24.8C85,66.27,85,77.08,85,77.42s-1.9.62-7.85.62H69.25V55.14c0-23.57.29-28.38,1.9-31.52A19.11,19.11,0,0,1,79,16.34c7.39-3.5,21.91-3.55,28.72-.11l1.87.95,3.15-1.26c4.33-1.73,7.33-2.23,13.53-2.23,9.52,0,15,1.79,19.65,6.37s4.58,3.64,4.76,33.05l.16,25.42-3.83,0a22.87,22.87,0,0,1-5.72-.7Zm74.34-25c0-15,.2-26.3.5-27.87,1-5.3,4.42-8.94,9.84-10.47,3.25-.92,11-1,16.41-.22l3.7.55V26.44l-1.6-.36a35.14,35.14,0,0,0-5.37-.35c-3.06,0-4,.19-5.15,1-2.64,1.95-2.6,1.59-2.61,27.33V78H215.6V52.81Z"/><path id="path4845" class="emartColor2" d="M22.82,78.81C16,77.45,12.35,75.65,8.08,71.45A26.89,26.89,0,0,1,.68,57.39c-1.12-5.32-.78-31.76.46-36C3.27,13.94,7.85,7.82,13.73,4.49,19,1.52,23.59.33,30.92.06S43,.35,47.74,2C59.18,6,65.88,15.78,64.32,26.34c-1.51,10.23-8.4,16.23-23.46,20.45C32,49.27,23.15,52,21.87,52.68c-3.42,1.77-5.15,4.39-4.52,6.82,1.15,4.4,5.23,6.76,12.3,7.12,8.92.46,13.86-2.48,15.9-9.46L46,55.69l8.45-.14,8.44-.13-.28,1.36c-1.48,7-3.7,11.42-7.57,15C49.7,76.7,43,79,32.64,79.28a46.24,46.24,0,0,1-9.82-.47ZM24.35,39C36.89,35.2,38.6,34.65,40.5,33.69c5.22-2.61,7.44-5.94,7-10.42-.42-4-2.53-6.94-6.49-9-3.58-1.83-10.62-2.14-14.58-.64-4.75,1.8-8.12,6.2-9.2,12-.58,3.14-.73,14.13-.2,14.66S18.27,40.78,24.35,39Z"/></g></g></g></g></svg>