<svg xmlns="http://www.w3.org/2000/svg" viewBox="0 0 315.89 318.1"><path d="M94.59,151.8C72.47,154,54.14,169.07,40,185.21,25.1,202.14,12.7,221.73,4.77,242.86c-5,13.41-10.37,37.27,8.32,42.8,8.68,2.58,18.3-2,25.59-6.25a148.08,148.08,0,0,0,16.45-11.7c2.77-2.19,5.49-4.46,8.16-6.78,3.73-3.23,6-6.75,8.83-10.74,4-5.76,10.61-12.82,16.14-19,6.72-7.56,13.46-15.28,18.89-23.84,4.93-7.78,8.51-16.43,9.13-25.69.7-10.55-3.89-19.93-10.41-27.87-3.61-4.38-11.12-3.74-14.85,0-4.34,4.34-3.62,10.45,0,14.85,3.81,4.63,4.83,8.38,4.17,14.05.21-1.77-.58,2.29-.74,2.84-.25.86-.53,1.71-.83,2.56-.05.15-.73,1.82-.18.55a60.19,60.19,0,0,1-5.07,9.12c-7.77,11.87-18.77,22.18-28,33.52-2.43,3-4.83,6-7,9.22a24,24,0,0,1-5.9,6.44,137.73,137.73,0,0,1-13.85,10.82,108.67,108.67,0,0,1-11.59,6.71c3-1.57-1.41.4-2.53.75a8.1,8.1,0,0,0-1.75.36c1.68-1.11,2.54-.1.44-.19s.45.08.93.18c-1-.21-2.52-1.15.91.52a7.65,7.65,0,0,1-1-.58c2.87,2,2.05,1.66,1.46,1.09s-1.18-1.64.88,1.26a7.61,7.61,0,0,1-.7-1.16c1.27,2.71,1.22,1.49.41.84-.27-.22-.16-1.06-.32-1.37s.1,2.85.13.49c0-1.32.06-2.63.11-3.95.08-2.44-.39,1.73-.07.35.19-.85.29-1.73.47-2.59a78.6,78.6,0,0,1,3-10.42c.69-1.94,1.45-3.84,2.23-5.74-.91,2.2-.05.14.37-.79.51-1.13,1-2.25,1.56-3.37,2-4.25,4.25-8.41,6.62-12.48,2.5-4.31,5.18-8.53,8-12.64,1.36-2,2.76-3.93,4.19-5.85.36-.49,2.68-3.48,1.19-1.59.88-1.11,1.76-2.21,2.66-3.31a157.94,157.94,0,0,1,11.24-12.33q2.88-2.82,5.93-5.46c1-.85,2-1.68,3-2.51,1.46-1.2,0,0-.3.21L73,182.78a91.13,91.13,0,0,1,12.78-7.53c1.26-.63-1.94.74-.63.25.64-.23,1.26-.49,1.89-.72,1-.37,2.08-.71,3.14-1s2.09-.5,3.14-.75c3.29-.79-1.6.06,1.26-.22,5.64-.55,10.5-4.43,10.5-10.5,0-5.25-4.82-11.05-10.5-10.5Z"/><path d="M125.79,170.91c-20-.66-27.08,26-30,41.2-4.45,23.25-5.17,47.74-1.2,71.11,1.45,8.52,3.76,17.69,8.8,24.84a24,24,0,0,0,10.35,8.8c6.53,2.72,12,.71,17.38-3.42,19.5-15.07,28.44-43.16,31.79-66.6,3.64-25.53,2.46-62.63-24.81-75.4-5.13-2.4-11.32-1.43-14.36,3.77-2.67,4.55-1.4,11.95,3.76,14.37a33.32,33.32,0,0,1,4.91,2.84c-1.47-1-.33-.29.36.38s1.54,1.49,2.27,2.29c.37.39.71.82,1,1.23-.07-.08-1.07-1.46-.41-.48.54.8,1.09,1.6,1.59,2.44s1,1.72,1.43,2.61c.33.64,1.3,3,.55,1.07a66,66,0,0,1,3.51,13c.08.48.16,1,.22,1.45-.06-.45-.21-1.95,0,.17.1,1,.2,2,.27,3,.19,2.59.27,5.18.26,7.77a106,106,0,0,1-3.68,28.39,135.59,135.59,0,0,1-4.64,14.88c-.36,1-.75,1.95-1.14,2.92.61-1.49-.57,1.29-.77,1.72Q131.76,278.7,130,282c-1.2,2.19-2.48,4.33-3.88,6.39-.66,1-1.34,2-2.06,2.89,1.22-1.6-.29.3-.76.84-1.4,1.62-3,3-4.49,4.51-1.74,1.69,1.18-.57-.8.62-.9.54-1.77,1.13-2.7,1.63l5.3-1.43c-1.07-.09,3,.77.57,0,.85.29,2.16,1.31.44.08-1.14-.83,1.8,2.12.38.28a19.3,19.3,0,0,0-1.62-1.76c2.16,2.1.68,1,.14,0-.41-.75-.86-1.48-1.25-2.25s-1.35-3.56-.33-.6c-.37-1.06-.8-2.09-1.14-3.15a85.6,85.6,0,0,1-3.07-13.1c-.1-.64-.62-4.47-.29-1.87-.15-1.17-.28-2.34-.4-3.52-.3-2.89-.51-5.79-.66-8.7a210.72,210.72,0,0,1,1-34.16c.14-1.25.28-2.5.45-3.75-.32,2.42.28-1.77.36-2.25.44-2.78,1-5.55,1.55-8.31a99.4,99.4,0,0,1,3.81-13.44c.2-.56.44-1.12.64-1.68.65-1.83-.7,1.42-.12.29.49-1,.91-2,1.42-2.92s1-1.73,1.52-2.59c.24-.4.57-.76.79-1.16.82-1.48-1.34,1.34-.49.65a13.79,13.79,0,0,0,1.73-1.77c1.18-1.47-2.26,1.28.06.05,1.76-.92-2.79.7-.18.11,1.78-.4-3.16,0-.14.11,13.52.45,13.51-20.55,0-21Z"/><path d="M94.4,126.22C77,123,56.6,115.42,41.64,129.07c-6.67,6.09,3.26,16,9.9,9.9,9.82-9,28-1.32,39.14.75,8.81,1.63,12.58-11.86,3.72-13.5Z"/><path d="M72.09,104.22c8.23,1.26,16.54,3.37,24.85,4,6.11.5,11.43-3.67,9.81-10.24a37.57,37.57,0,0,0-2.19-5.31c.83,2-.49-1.39-.7-2a39.55,39.55,0,0,1-1.07-3.87c-1.73-7.65-.44-17.06,1.93-25.43,2.46-8.68-11-12.39-13.5-3.72-4.1,14.47-4.48,28.78,1.5,42.67.63,1.45.23,1.64.22.49,0,1.49,0,.57.14-.43a7,7,0,0,1,3.81-5.6c.17-.08,2.13-.82,1.83-.45-.1.14-2.73-.17-1.29,0,1.28.12-.51-.08-.77-.12-.6-.11-1.2-.2-1.8-.3l-4.59-.81q-7.22-1.27-14.46-2.39c-3.76-.58-7.48,1-8.61,4.89-1,3.3,1.16,8,4.89,8.61Z"/><path d="M111.3,82a15.83,15.83,0,0,0,.52,3.5,13.92,13.92,0,0,0,1.44,3.28,14.25,14.25,0,0,0,5,4.83,9.41,9.41,0,0,0,6.93.91,9.19,9.19,0,0,0,5.38-4.14,9,9,0,0,0,.91-6.93,9.19,9.19,0,0,0-4.14-5.38l-.57-.36,1.82,1.4a5.45,5.45,0,0,1-1-1L129,80a6.51,6.51,0,0,1-.57-1l.91,2.15a5.61,5.61,0,0,1-.32-1.08l.33,2.39a3.44,3.44,0,0,1,0-.45,9.65,9.65,0,0,0-2.64-6.36,9,9,0,0,0-12.73,0A8.83,8.83,0,0,0,111.3,82Z"/><path d="M147.08,111.49c12-20.67,16.48-44.33,26-66a107.89,107.89,0,0,1,7.36-14c2.6-4.15,5.32-8.79,9.94-10.78a43,43,0,0,1,5.39-1.89c.94-.25,1.89-.48,2.85-.66,2.77-.52-1.57,0,1-.11.63,0,4.5.17,2,0a6.05,6.05,0,0,1,1.9.53c-2.38-1.29.27.19.56.48-2.18-2.26,0,.2,0,.14,0,1.3-.77-1.2,0,.07.27.43.48.89.74,1.34.6,1.08-.57-2.09-.08-.09.18.71.89,4.64.65,2.31a35.12,35.12,0,0,1,.12,5.33c0,.67-.1,1.35-.16,2-.13,1.59.39-2.16,0,.51q-.44,2.58-1.08,5.13a76.85,76.85,0,0,1-3.07,9.14c-3.12,7-6.49,12.3-11.24,16.9-5.68,5.5-10.23,11.81-14.71,18.32-5.23,7.61-10,15.2-16.59,21.61a17.88,17.88,0,0,1-3.93,3.25c-.61.36-1.2.72-1.83,1s-.49.26.3-.07a15.21,15.21,0,0,1-1.49.48c-2.49.64,1.89-.25-.61.15a10.88,10.88,0,0,1-1.51,0c1.12.16,1.16.13.1-.09-2.43-.82,1.49.9-.92-.39a6.34,6.34,0,0,1-2.07-1.48c-8.61-7.7-21.39,5-12.73,12.73,8.11,7.25,18.15,9.39,28,4.26,8.9-4.63,15.36-13.37,21.11-21.29,5.32-7.33,10.51-16,15.73-21.92,5.7-6.42,11.49-12,15.63-19.75,7.25-13.45,14.24-34.53,5.05-48.74C214.85,2.51,206.57-.75,198,.14a52.84,52.84,0,0,0-16.11,4.71C175.36,7.77,171.37,13,167.3,18.79c-17.69,25.15-20.51,57.26-35.76,83.62-5.82,10,9.73,19.12,15.54,9.08Z"/><path d="M121.89,154.21c8.65,5.73,18.69,9.88,25.67,17,12.17,12.45,31.25-6.65,19.09-19.09-9-9.18-20.58-14.24-31.13-21.22-6.08-4-14.94-1.2-18.47,4.84-3.86,6.6-1.26,14.43,4.84,18.47Z"/><path d="M188.24,136.68a120.56,120.56,0,0,0,40.64-32c2.73-3.4,5.4-6.88,7.79-10.53.7-1.06,1.66-2.22.19-.48.75-.9,1.51-1.79,2.33-2.63.6-.61,1.23-1.2,1.87-1.77.27-.25,2.79-2.32,1.54-1.35s1.47-1,1.8-1.24c1-.7,2.07-1.36,3.13-2,1.84-1.1,3.73-2.11,5.65-3,1-.51,2.11-1,3.18-1.47,1.49-.65-1.69.68-.18.09.69-.27,1.38-.55,2.08-.81a89.21,89.21,0,0,1,13.59-3.87c1.13-.23,2.26-.4,3.39-.6,2-.36-.06,0-.41.05.55-.05,1.1-.13,1.65-.17a63.92,63.92,0,0,1,6.78-.24c.88,0,1.76.09,2.64.14,3,.15-1-.4.65.07.88.24,1.8.36,2.68.6.5.14,3.5,1.23,1.75.5s.81.5,1.16.68c2,1,.5.42.16,0A10.59,10.59,0,0,0,293.72,78c-2.2-1.77-.7-.52.18.65-1-1.32-.67-1.74-.15-.1.74,2.35.12.54.15.28a25,25,0,0,0,0,2.87c.07,2.23.51-1.56-.24,1.48-.3,1.19-.59,2.37-1,3.54-.2.63-.43,1.26-.65,1.88-.35,1,.08,1.08-.08.34,0,.2-1.1,2,0,.56s.14,0,.11-.12c.15.51-2.37,1.56.46-.28-2.65,1.72-5.19,3.54-7.93,5.14a280.65,280.65,0,0,1-25.59,13c-2.5,1.14-5,2.25-7.54,3.34-.45.2-3.38,1.44-1.74.75-1.63.68-3.27,1.36-4.91,2q-7.87,3.18-15.89,6a191.32,191.32,0,0,1-32.48,8.72c3.23-.52-.64,0-1.49.12s-1.81.12-2.72.14-2.07,0-3.1,0c-2.56-.06-.77-.48-.1,0a6.8,6.8,0,0,0-2.14-.54c-1.27,0,2.62,1.45.47.12-1.65-1,2.13,2,.58.35-.09-.09,1.78,2.56,1.06,1.31-.82-1.4,1,2.87.49,1.22-1.86-5.64-7.6-9.32-13.53-7.69-5.52,1.52-9.55,7.87-7.68,13.53,7.15,21.68,38.37,12.64,53.91,8A357.32,357.32,0,0,0,290.81,116c7.31-4,16.89-8.52,20.37-16.49,4.67-10.72,7.55-23.84.35-34.2-13-18.79-42.74-13.59-60.78-6.48-11.07,4.36-22.32,10.31-29.87,19.77-5.83,7.31-10.72,14.85-17.6,21.35a105.56,105.56,0,0,1-26.14,17.7c-5.33,2.62-6.79,10.19-3.95,15,3.18,5.44,9.7,6.58,15.05,4Z"/></svg>