<svg xmlns="http://www.w3.org/2000/svg" viewBox="0 0 379.99 99.18">
<defs><style>.clsKorea-1{fill:#595757;}.clsKorea-2{fill:#003668;}.clsKorea-3{fill:#e6002d;}</style></defs>

<g id="레이어_2" data-name="레이어 2">

<polygon class="clsKorea-1" points="135.44 37.78 147.52 37.78 147.52 33.3 130.36 33.3 130.36 65.98 148.03 65.98 148.03 61.54 135.44 61.54 135.44 37.78"/><polygon class="clsKorea-1" points="161.3 47.58 155.85 47.58 155.85 30.78 151.09 30.78 151.09 71.38 155.85 71.38 155.85 51.93 161.3 51.93 161.3 71.61 166.15 71.61 166.15 30.78 161.3 30.78 161.3 47.58"/><polygon class="clsKorea-1" points="179.45 58.38 174.37 58.38 174.37 70.79 207.28 70.79 207.28 66.35 179.45 66.35 179.45 58.38"/><polygon class="clsKorea-1" points="206.41 30.78 201.33 30.78 201.33 56.92 206.41 56.92 206.41 46.34 212.27 46.34 212.27 41.9 206.41 41.9 206.41 30.78"/><polygon class="clsKorea-1" points="197.21 33.85 187.55 33.85 187.55 29.96 182.15 29.96 182.15 33.85 172.54 33.85 172.54 38.2 197.21 38.2 197.21 33.85"/><path class="clsKorea-1" d="M188.54,39.91a9.92,9.92,0,0,0-7.37,0,10,10,0,0,0-3,1.9,9.21,9.21,0,0,0-2,2.79,8,8,0,0,0-.75,3.44,7.65,7.65,0,0,0,.75,3.38,9.92,9.92,0,0,0,2,2.8,9.4,9.4,0,0,0,3,1.87,10.19,10.19,0,0,0,7.37,0,8.78,8.78,0,0,0,5-4.67,7.52,7.52,0,0,0,.76-3.38,7.9,7.9,0,0,0-.76-3.44,9.41,9.41,0,0,0-2-2.79A10.77,10.77,0,0,0,188.54,39.91Zm-.44,11.26a4.58,4.58,0,0,1-6.41,0A4.3,4.3,0,0,1,180.37,48a4.44,4.44,0,0,1,1.32-3.22,4.48,4.48,0,0,1,6.41,0A4.41,4.41,0,0,1,189.43,48,4.27,4.27,0,0,1,188.1,51.17Z"/><path class="clsKorea-1" d="M238.59,32.2h-21V52.94h21Zm-5,16.39h-11v-12h11Z"/><rect class="clsKorea-1" x="246.78" y="30.78" width="5.08" height="26.14"/><polygon class="clsKorea-1" points="223.81 57.15 218.77 57.15 218.77 70.79 252.23 70.79 252.23 66.3 223.81 66.3 223.81 57.15"/><polygon class="clsKorea-1" points="287.69 43.78 292.77 43.78 292.77 31.61 261.28 31.61 261.28 36.09 287.69 36.09 287.69 43.78"/><polygon class="clsKorea-1" points="258.26 51.47 274.51 51.47 274.51 57.47 260.82 57.47 260.82 61.91 287.69 61.91 287.69 71.7 292.77 71.7 292.77 57.47 279.54 57.47 279.54 51.47 295.79 51.47 295.79 47.03 258.26 47.03 258.26 51.47"/><polygon class="clsKorea-1" points="331.73 38.88 324.13 38.88 324.13 43.23 331.73 43.23 331.73 52.43 336.81 52.43 336.81 30.78 331.73 30.78 331.73 38.88"/><path class="clsKorea-1" d="M330.21,55.87a10.48,10.48,0,0,0-3.36-2.18,11.06,11.06,0,0,0-8.26,0,10.52,10.52,0,0,0-5.66,5.36,9.31,9.31,0,0,0,0,7.73,10.52,10.52,0,0,0,5.66,5.36,11.06,11.06,0,0,0,8.26,0,10.6,10.6,0,0,0,5.63-5.36,9.21,9.21,0,0,0,0-7.73A10.44,10.44,0,0,0,330.21,55.87Zm-3.54,11a5.57,5.57,0,0,1-4,1.62,5.59,5.59,0,0,1,0-11.17,5.51,5.51,0,0,1,4,1.65,5.51,5.51,0,0,1,0,7.9Z"/><polygon class="clsKorea-1" points="321.2 51.61 324.72 48.68 314.38 36 324.31 36 324.31 31.61 300.96 31.61 300.96 36 311.19 36 300.83 49.37 304.49 52.3 312.77 41.17 321.2 51.61"/><polygon class="clsKorea-1" points="342.45 56.57 342.45 61.05 358.65 61.05 358.65 71.58 363.74 71.58 363.74 61.05 379.99 61.05 379.99 56.57 342.45 56.57"/><path class="clsKorea-1" d="M377,31.44h-5v5.17H350.46V31.44h-5V51.08H377Zm-26.5,15.2V41h21.47v5.63Z"/><path class="clsKorea-2" d="M76.57,47.33C68,41.48,56.93,43.86,51.14,52.67a17.9,17.9,0,0,1-32.36-4.92h0l-.05-.19c0-.07-.05-.15-.07-.23a23,23,0,0,1-.91-7.11c0-16,16.46-33.89,40.16-33.89,24.27,0,38.16,18.47,41.74,28.74l-.18-.54A51.12,51.12,0,0,0,0,51.11C0,76.34,18.2,97.94,43.44,97.94c20.14,0,33.66-11.29,39.87-26.85C86.72,62.59,84.31,52.59,76.57,47.33Z"/><path class="clsKorea-3" d="M100,36.07c-3-10-17-29.74-42.06-29.74-23.7,0-40.16,17.85-40.16,33.89a23,23,0,0,0,.91,7.11,15.34,15.34,0,0,1-.47-3.64c0-16.71,16.73-28.28,33.93-28.28A42.14,42.14,0,0,1,94.26,57.55,46.46,46.46,0,0,1,68.5,99.17h0A51.22,51.22,0,0,0,100,36.07Z"/>

</g>

</svg>