<svg xmlns="http://www.w3.org/2000/svg" viewBox="0 0 312.27 314.53">
<path d="M118.73,182.37c-14.13,5.77-28.45,11-42.77,16.32-9.9,3.67-20.06,7.27-29.25,12.52-17.48,10-25.78,26.68-30.85,45.55-4.58,17.05-7.42,34.58-10.48,51.95-1,5.58,1.5,11.31,7.33,12.91,5.13,1.42,11.84-1.73,12.91-7.33.22-1.1.52-2.15.82-3.22.75-2.69-1,1.3.48-1.06.56-.92,1.17-1.83,1.72-2.75-1.55,2.57.43-.42,1.15-1.15s1.5-1.41,2.26-2.1c2.07-1.87-1,.54,1.28-1s4.73-3,7.24-4.29c1.2-.62,2.42-1.21,3.65-1.78.65-.3,3.55-1.58,2.59-1.17s2-.83,2.74-1.1q2.48-1,5-1.9c5.75-2.13,11.56-4.1,17.33-6.18,22.94-8.25,50.66-19.62,56.71-46.15a53.16,53.16,0,0,0,1.34-12.12c0-.81,0-1.63-.08-2.43,0-.57-.61-5.52-.32-2.8-.21-2-.38-4-.41-6.06-.05-4.35-.22-5.65,1.39-9.66-.87,2.16.64-.89.64-.91l-.52.69c.86-.82.83-.86-.1-.1,2.76-.5-.38-.36,0-.1,1.19-.28,1.26-.32.22-.11A16.25,16.25,0,0,1,133,207l-7.43-3.08c1.22,1.27,2.39,2.57,3.53,3.91.49.58,1.58,2.08.51.62.6.81,1.19,1.63,1.76,2.47a75.09,75.09,0,0,1,5.38,9.38c.43.91.85,1.83,1.26,2.75.48,1.11-.18-.4-.22-.51.15.4.32.8.47,1.21.64,1.76,1.3,3.52,1.86,5.31a97.08,97.08,0,0,1,2.67,10.49c.33,1.7.61,3.4.88,5.11.19,1.23-.07-.56-.08-.66,0,.43.11.85.16,1.28.1,1,.22,2,.31,3q.48,5.28.49,10.57c0,3.55-.13,7.11-.42,10.65-.12,1.57-.3,3.15-.47,4.72-.23,2.17.07-.32,0,.27-.15.87-.27,1.75-.42,2.62A92.58,92.58,0,0,1,139,293.61c-.24.65-.52,1.29-.75,1.95s1.08-2.21.16-.41c-.52,1-1,2.08-1.52,3.1-.47.85-1,1.67-1.49,2.49-.23.37-.54.72-.76,1.1-.64,1.16,1.85-1.77.48-.65a7.49,7.49,0,0,0-1.59,1.59c.34-1.12,2.25-1.15.1-.26-1.32.55,2.76-1,1.42-.62-1.54.45,1.49-.15,1.71-.16-2.36.09,2.78.77.75.18-1.5-.44,2,.93,1.44.61-1.81-1,1.06.69.93.84s-2.77-2.84-1-.83c1.33,1.51-.44-.77-.8-1.41-.59-1.06-1.66-4.1-.72-1.28a103.09,103.09,0,0,1-3-9.89c-.49-2.12-.9-4.26-1.27-6.4-.21-1.2-.39-2.39-.57-3.59-.31-2-.11-.59-.3-2.2A376.72,376.72,0,0,1,130,234.5c-.06-13.51-21.06-13.54-21,0,.09,21.45.31,44.18,6.12,65,2.84,10.2,8.79,23.42,21.33,23.25,11.46-.15,17.9-11.55,21.69-20.81,4.65-11.38,6.62-23.9,7.26-36.12.77-14.72-.83-30-5.54-44a89,89,0,0,0-10.1-21.15,84.63,84.63,0,0,0-7.51-9.68c-4.82-5.35-11.57-6.2-18.23-3.94-11.37,3.86-15.3,15.89-15.87,26.81a53.65,53.65,0,0,0,.07,6.34c.07,1,.17,1.95.28,2.93s.45,5.71.32,2.8c.07,1.59.11,3.18,0,4.78,0,.9-.11,1.81-.21,2.71.29-2.68-.22,1-.34,1.48a41,41,0,0,1-1.43,4.74c-.92,2.53,1-1.92-.23.43-.37.7-.72,1.41-1.12,2.1s-3.14,4.5-1.47,2.42a44.13,44.13,0,0,1-3.75,4.1c-1.17,1.13-2.4,2.19-3.67,3.2,2-1.56-2,1.32-2.62,1.75a87.93,87.93,0,0,1-9.86,5.5c-1.89.92-3.81,1.79-5.74,2.62,2.21-.95-.6.24-.88.35-1.14.46-2.28.92-3.43,1.36-4,1.57-8.14,3-12.23,4.47-8.47,3-17,6-25.2,9.54-13.73,6-28.28,15.4-31.3,31.24l20.24,5.58c2.76-15.6,5.41-31.27,9.14-46.68,1.25-5.14,2.64-10.26,4.39-15.26.39-1.13.82-2.24,1.24-3.36.92-2.49-.46.76.24-.62.94-1.86,1.76-3.76,2.8-5.58.91-1.59,2-3.06,3-4.58-.49.74-1.13,1.27.25-.25.67-.74,1.32-1.49,2-2.2,1.22-1.24,2.56-2.31,3.86-3.45-1.71,1.5-.91.66.34-.18.88-.59,1.75-1.17,2.65-1.73a90,90,0,0,1,10.75-5.51l1.62-.7c1.44-.63-2.45,1-.15.07.94-.37,1.87-.76,2.81-1.14,2.54-1,5.1-2,7.67-2.94,15.4-5.77,30.86-11.34,46.09-17.56,5.25-2.14,9-7,7.34-12.92-1.37-5-7.64-9.48-12.92-7.33Z" transform="translate(-5.17 -8.23)"/>
<path d="M101.87,164.15c13.51,0,13.53-21,0-21s-13.54,21,0,21Z" transform="translate(-5.17 -8.23)"/>
<path d="M94.13,126.89c8.68.08,16.45,1,24.68,4.2-1.45-.57.11,0,.66.32s1.2.58,1.78.9c1.09.58,2.13,1.24,3.17,1.9.42.27.8.58,1.21.86-.86-.6-1.17-1-.31-.22.53.5,1.11,1,1.63,1.47a22.66,22.66,0,0,0,2.25,2.13c5.18,3.82,13,.42,12.93-6.33,0-3.4-1.92-7.1-2.68-10.37-2.61-11.11-3.52-22.35-4.19-33.77-.6-10.24-16.6-10.3-16,0,.71,12.09,1.78,24.3,4.34,36.16.55,2.55,1.18,5.09,2,7.57.62,2,.35,3.59.56.48l1.09-4h0l6.9-4h0l4,1.1c1,.49,2,1.79.86.46a18.75,18.75,0,0,0-1.75-1.7,41.69,41.69,0,0,0-8.17-5.7c-10.69-5.64-23-7.36-35-7.47-10.3-.09-10.3,15.91,0,16Z" transform="translate(-5.17 -8.23)"/>
<path d="M193.82,148.53q10.94-2.33,22-4l4.07-.6,1.52-.21c-1.55.21,1.51-.19,1.44-.18q4.16-.53,8.33-1c9-1,18.3-1.73,27.18-3.88,18-4.36,29.16-17.46,37.49-33.31S310.52,72.73,317,56.15c1.48-3.81-.73-8.76-3.77-11-3.62-2.71-7.64-2.65-11.66-.82-2.93,1.32,1.9-.68-1.11.47-.61.24-1.23.47-1.85.69q-2.35.82-4.76,1.5c-3.27.92-6.59,1.64-9.93,2.25-1.7.31-3.41.59-5.12.84l-2.07.3c2.16-.3-1.26.17-1.37.18-3.49.44-7,.83-10.47,1.24-14.58,1.71-29.28,3.6-42.53,10.34-14.3,7.27-23.79,20.49-28.46,35.6-1.09,3.53-1.64,7.12-2.5,10.69a47.92,47.92,0,0,1-3.21,9.11c-.76,1.48-1.51,3-2.38,4.38a26.38,26.38,0,0,1-1.73,2.58c.27-.35,1.12-1.33-.17,0l-.61.62c-.77.68-.83.74-.18.2l.44-.37c-1,.57-.83.48.64-.24,1.88-.22,2.9-.84,5,.66,1,.73,1.58,2.38.93.72-1.59-4-4.44-7.82-6.37-11.71-1.75-3.53-3.32-7-4.51-10A141,141,0,0,1,172.64,83c-.38-1.68-.71-3.36-1-5-.12-.71-.8-5.2-.52-3.09-.41-3.09-.67-6.2-.8-9.32-.12-2.74-.13-5.49,0-8.24.05-1.23.13-2.46.23-3.68.07-.8.18-1.59.23-2.38.15-2.22-.4,2.07,0-.26a129.2,129.2,0,0,1,3.42-13.31c.42-1.43-1.11,2.11.24-.53.38-.75.74-1.53,1.15-2.27s.88-1.55,1.37-2.3c.23-.35.5-.69.72-1.05,1.16-1.91-1.61,1.52-.3.39a28,28,0,0,0,2.84-2.82c-2.08,2.39-1.31.81-.13.26,2.44-1.12-1.9.7-.29,0a12.28,12.28,0,0,0,1.56-.42c.63-.4-3,.15-.69.2s-3-.56-.7-.1.14.68-.25-.24a9.2,9.2,0,0,0,1.88,1.14c-1.89-.4-1.62-1.45,0,.24.85.86,2,3.1.44.34.56,1,1.27,1.86,1.83,2.83s1,1.84,1.43,2.76c.3.57,1.07,2.72,0,0,.26.68.53,1.35.78,2a74.24,74.24,0,0,1,2.52,8.64c1.92,8.23,2.35,13,2.81,21.78a287.36,287.36,0,0,1-.48,34c-.37,5.66,5.09,10.5,10.5,10.5,6,0,10.13-4.82,10.5-10.5,1.28-19.49,1.43-39.41-2.49-58.63-2.14-10.49-5.93-22.29-14.17-29.64-7.2-6.42-17.38-8.09-25.85-3s-13.38,14.2-16.39,23.26c-9.2,27.63-1.72,59.14,9.82,84.81,3.6,8,7.85,19.55,15.69,24.26,9.52,5.72,18.9-1.62,24.16-9.27a62.4,62.4,0,0,0,9.38-22.83,68.43,68.43,0,0,1,3.43-12.34,39.71,39.71,0,0,1,2.43-4.9c.37-.64.74-1.27,1.14-1.89.2-.32,2.47-3.45,1.43-2.16a41,41,0,0,1,4.13-4.4c.48-.45,1-.88,1.47-1.3.95-.77,1-.83.17-.16q.78-.58,1.59-1.11c1.63-1,3.26-2,5-2.92.86-.44,1.73-.85,2.62-1.24-1.68.73.64-.24,1.1-.4a89.65,89.65,0,0,1,11.5-3.25q3.25-.69,6.54-1.21l2.56-.4,2.07-.3c-1.07.14-1,.13.32,0,17.88-2.28,35.87-3.42,52.5-11L296.72,50.57c-5.54,14.24-10.57,27.34-17.32,40.87a121.39,121.39,0,0,1-7.17,12.73c-.58.89-1.19,1.75-1.79,2.62-1.47,2.16.67-.62-.34.5-1.28,1.41-2.45,2.9-3.82,4.23-.6.58-1.25,1.11-1.86,1.69-1.75,1.68,1.1-.61,0,0-1.34.79-2.57,1.74-4,2.48-.67.36-1.42.64-2.08,1,.65-.38,2-.7-.15,0-1.54.51-3.08,1-4.66,1.43a105.55,105.55,0,0,1-10.76,2c2.36-.35.69-.09-.6.07l-3.23.38-7,.8c-14.69,1.68-29.3,3.79-43.77,6.85-5.55,1.17-8.77,7.68-7.33,12.91,1.58,5.75,7.35,8.51,12.92,7.34Z" transform="translate(-5.17 -8.23)"/>
<path d="M216.21,193c13.51,0,13.54-21,0-21s-13.53,21,0,21Z" transform="translate(-5.17 -8.23)"/>
<path d="M227.75,207.67a73.34,73.34,0,0,1-14,1.21,33.41,33.41,0,0,1-9.64-1.06c-1.35-.32-2.7-.7-4-1.15l-1.49-.55c-1.07-.38,1.39.78-.28-.14-1.49-.82-2.92-1.78-4.41-2.58s1.72,1.38.33.26a17.78,17.78,0,0,0-2.14-1.66c-6-3.53-13.71,2.22-11.83,9.06.88,3.21,3.14,6.32,4.45,9.37-.77-1.79.28.7.46,1.16.44,1.1.86,2.21,1.26,3.32.89,2.41,1.72,4.85,2.5,7.3,2.27,7.09,4.19,14.28,6,21.51,2.43,10,17.86,5.77,15.42-4.25-2.75-11.32-5.83-22.64-10.22-33.44-1.16-2.83-2.35-5.66-3.74-8.39-1.55-3-.94-4.08-.38,1.25l-1.09,4h0l-6.91,4c-3.39.11-3.79-1.38-5.22-2a3.43,3.43,0,0,1,.63.51c1.15.9,2.29,1.8,3.52,2.59a40.76,40.76,0,0,0,9.19,4.24c11.5,3.88,24.13,3,35.87.92,4.25-.76,6.65-5.95,5.58-9.84-1.23-4.49-5.57-6.35-9.84-5.59Z" transform="translate(-5.17 -8.23)"/><path d="M162.78,191.91c11,0,21.51-9.66,21-21s-9.22-21-21-21c-11,0-21.51,9.66-21,21s9.23,21,21,21Z" transform="translate(-5.17 -8.23)"/></svg>